<svg xmlns="http://www.w3.org/2000/svg" xmlns:xlink="http://www.w3.org/1999/xlink" width="28" height="28" viewBox="0 0 28 28">
  <defs>
    <linearGradient id="linear-gradient" y1="1.153" x2="1.081" gradientUnits="objectBoundingBox">
      <stop offset="0" stop-color="#254dde"/>
      <stop offset="1" stop-color="aqua"/>
    </linearGradient>
  </defs>
  <g id="Group_80" data-name="Group 80" transform="translate(-34 -86)">
    <g id="Group_7" data-name="Group 7" transform="translate(4 6)">
      <circle id="Ellipse_1" data-name="Ellipse 1" cx="14" cy="14" r="14" transform="translate(30 80)" fill="url(#linear-gradient)"/>
      <path id="drink_x5F_round_1_" d="M1.224,0A1.227,1.227,0,0,0,0,1.224V4.283a3.571,3.571,0,0,0,3.059,3.61v3.12H2.447a.578.578,0,0,0-.612.612h0a.578.578,0,0,0,.612.612H4.894a.578.578,0,0,0,.612-.612h0a.578.578,0,0,0-.612-.612H4.283V7.892a3.571,3.571,0,0,0,3.059-3.61V1.224A1.227,1.227,0,0,0,6.118,0ZM6.118,4.283A2.479,2.479,0,0,1,3.426,6.73a2.529,2.529,0,0,1-2.2-2.57V1.835a.578.578,0,0,1,.612-.612H5.506a.578.578,0,0,1,.612.612Z" transform="translate(43.993 87) rotate(30)" fill="#fff"/>
    </g>
  </g>
</svg>
