<svg xmlns="http://www.w3.org/2000/svg" xmlns:xlink="http://www.w3.org/1999/xlink" width="28" height="28" viewBox="0 0 28 28">
  <defs>
    <linearGradient id="linear-gradient" x1="0.087" y1="1" x2="0.925" gradientUnits="objectBoundingBox">
      <stop offset="0" stop-color="#fe1e9a"/>
      <stop offset="1" stop-color="#254dde"/>
    </linearGradient>
  </defs>
  <g id="Group_78" data-name="Group 78" transform="translate(-30 -80)">
    <circle id="Ellipse_1" data-name="Ellipse 1" cx="14" cy="14" r="14" transform="translate(30 80)" fill="url(#linear-gradient)"/>
    <path id="basketball_1_" d="M10.964,2.389a5.675,5.675,0,0,0-.858-.858A5.764,5.764,0,0,0,6.125,0,6.01,6.01,0,0,0,2.144,1.47a4.122,4.122,0,0,0-.857.919,6.07,6.07,0,0,0,0,7.472,5.675,5.675,0,0,0,.857.858,6.01,6.01,0,0,0,3.981,1.47,6.01,6.01,0,0,0,3.981-1.47,5.675,5.675,0,0,0,.858-.858,6.07,6.07,0,0,0,0-7.472Zm-8.82.919a4.041,4.041,0,0,1,.735,1.654c-.49.061-1.041.184-1.592.306A4.372,4.372,0,0,1,2.144,3.307ZM1.225,6.554c.612-.184,1.225-.306,1.837-.429a4.99,4.99,0,0,1-.919,2.818A5.143,5.143,0,0,1,1.225,6.554Zm4.287,4.41A4.49,4.49,0,0,1,3,9.861,6.127,6.127,0,0,0,4.287,6.125V6a8.209,8.209,0,0,1,1.225-.061Zm0-6.309A10.935,10.935,0,0,0,4.1,4.777,5.367,5.367,0,0,0,3,2.389a4.49,4.49,0,0,1,2.511-1.1Zm4.594-1.347a4.935,4.935,0,0,1,.858,2.021c-.551-.184-1.1-.306-1.592-.429A4.178,4.178,0,0,1,10.106,3.307ZM6.737,1.286a4.49,4.49,0,0,1,2.511,1.1A6.681,6.681,0,0,0,8.085,4.778c-.49-.061-.919-.061-1.409-.122V1.286Zm0,9.678V5.88c.429,0,.8.061,1.225.061v.122A6.127,6.127,0,0,0,9.249,9.8,4.178,4.178,0,0,1,6.737,10.964Zm3.369-2.021a4.99,4.99,0,0,1-.919-2.818c.613.122,1.225.245,1.837.429A5.143,5.143,0,0,1,10.106,8.943Z" transform="translate(43.619 85) rotate(45)" fill="#fff"/>
  </g>
</svg>
